<svg width="276" height="61" viewBox="0 0 276 61" fill="none" xmlns="http://www.w3.org/2000/svg">
<path d="M229.101 36.7769L242.028 36.7521L235.38 18.7273L229.101 36.7769ZM225.664 46.8544L222.225 56.6313L211.553 56.6517L230.016 4.00699L240.462 3.98697L259.953 56.559L249.281 56.5794L245.73 46.8159L225.664 46.8544Z" fill="#9939F1"/>
<path d="M264.265 3.62779L267.816 3.62098L267.809 0.0166307L271.361 0.00982388L271.368 3.61417L274.92 3.60737L275.021 56.4451L271.469 56.4519L271.476 60.1346L267.925 60.1414L267.918 56.4587L264.366 56.4655C264.332 38.8536 264.398 21.2391 264.265 3.62779Z" fill="#9939F1"/>
<path d="M24.9286 2.38159C28.7866 2.38162 32.1937 3.40877 35.1498 5.46305C38.106 7.46723 40.06 10.0977 41.012 13.3545L31.3169 16.1352C31.0163 14.9828 30.2898 14.0559 29.1374 13.3544C27.985 12.703 26.5821 12.3774 24.9286 12.3773C22.9245 12.3773 21.271 12.8784 19.9683 13.8804C18.7157 14.8324 18.0894 16.1101 18.0895 17.7134C18.0895 18.966 18.5655 20.0182 19.5174 20.87C20.77 21.9221 22.7993 22.6988 25.6051 23.1998C30.7157 24.0516 34.8994 25.9055 38.1562 28.7615C41.413 31.5673 43.0414 35.3001 43.0414 39.9597C43.0414 42.3146 42.5905 44.4942 41.6886 46.4983C40.7868 48.5025 39.4841 50.3062 37.7806 51.9095C34.2733 55.1663 29.9894 56.7946 24.9289 56.7946C20.8204 56.7946 17.1628 55.6672 13.9561 53.4125C10.6993 51.2079 8.54482 48.3269 7.49261 44.7695L17.1877 42.064C17.6387 43.4669 18.5656 44.5942 19.9685 45.446C20.67 45.8969 21.4215 46.2477 22.2232 46.4982C23.075 46.6986 23.9769 46.7988 24.9288 46.7988C27.1835 46.7989 29.1125 46.1475 30.7158 44.8448C31.4674 44.1935 32.0185 43.467 32.3693 42.6653C32.7701 41.8135 32.9705 40.9117 32.9705 39.9597C32.9705 38.206 32.269 36.728 30.8661 35.5255C30.0644 34.9242 29.1125 34.3981 28.0102 33.9472C26.9079 33.4962 25.6302 33.1455 24.1772 32.895C19.4674 32.0432 15.6094 30.3647 12.6031 27.8594C9.54676 25.4043 8.01857 22.0223 8.01854 17.7133C8.01853 15.5589 8.41935 13.5797 9.221 11.776C10.0728 9.92216 11.3003 8.26874 12.9036 6.81573C16.1604 3.85961 20.1687 2.38156 24.9286 2.38159ZM86.0072 41.388L59.7026 41.3878C59.9531 42.3398 60.3289 43.2417 60.8299 44.0934C61.331 44.9452 61.9823 45.7218 62.784 46.4233C64.3373 47.7761 66.2412 48.4525 68.4959 48.4525C70.45 48.4525 72.0783 48.2271 73.381 47.7762C74.6837 47.3252 75.9864 46.6739 77.2891 45.8221L82.6253 52.1353C80.4708 53.7887 78.2662 54.9912 76.0115 55.7427C73.7569 56.4442 71.2517 56.7949 68.4959 56.7949C62.9344 56.7948 58.2246 54.8658 54.3666 51.0078C50.4584 47.1497 48.5043 42.5151 48.5043 37.1038C48.5043 31.6425 50.3581 26.9828 54.0658 23.1248C57.7734 19.317 62.3329 17.413 67.7441 17.4131C73.0051 17.4131 77.3641 19.3171 80.8213 23.125C84.2785 26.9329 86.0072 31.6928 86.0072 37.4047L86.0072 41.388ZM67.9697 26.7324C65.8653 26.7324 64.0365 27.3587 62.4833 28.6113C60.9802 29.914 60.0032 31.6676 59.5522 33.8722L75.9363 33.8723C75.4352 31.5675 74.4832 29.7888 73.0803 28.5362C71.7776 27.3337 70.074 26.7324 67.9697 26.7324ZM127.613 55.8933L117.617 55.8933L117.617 35.9769C117.617 33.3715 116.891 31.3172 115.438 29.8141C114.035 28.2108 112.256 27.4091 110.102 27.4091C107.897 27.4091 106.068 28.2107 104.615 29.814C103.914 30.5656 103.363 31.4675 102.962 32.5197C102.611 33.5217 102.436 34.6741 102.436 35.9768L102.436 55.8932L92.4402 55.8931L92.44 18.3151L101.834 18.3151L101.835 21.8475C102.035 21.6471 102.235 21.4467 102.436 21.2462C102.636 21.0458 102.837 20.8454 103.037 20.645C105.292 18.4905 108.248 17.4133 111.905 17.4133C116.665 17.4134 120.498 19.167 123.404 22.6743C124.807 24.428 125.859 26.4572 126.561 28.762C127.262 31.0167 127.613 33.5469 127.613 36.3528L127.613 55.8933ZM161.672 25.4553L152.277 28.687C151.977 27.9354 151.476 27.3592 150.774 26.9584C150.123 26.5576 149.346 26.3571 148.444 26.3571C147.843 26.3571 147.317 26.4323 146.866 26.5826C146.415 26.6828 146.039 26.8832 145.739 27.1838C145.037 27.735 144.711 28.4364 144.762 29.2882C144.812 30.4406 145.964 31.2673 148.219 31.7684C148.77 31.8686 149.271 31.9688 149.722 32.069C150.173 32.1692 150.549 32.2694 150.849 32.3696C154.006 33.0711 156.511 34.2235 158.365 35.8269C161.121 38.1818 162.499 41.188 162.499 44.8456C162.448 48.7036 160.895 51.76 157.839 54.0146C156.687 54.9165 155.309 55.5929 153.705 56.0438C152.102 56.5449 150.298 56.7954 148.294 56.7953C144.987 56.7452 142.031 56.0187 139.426 54.6158C136.87 53.2128 135.067 51.1586 134.014 48.4529L143.484 45.071C144.286 46.8246 145.739 47.7014 147.843 47.7015C149.296 47.7015 150.398 47.4008 151.15 46.7996C151.952 46.1483 152.327 45.3466 152.277 44.3946C152.227 43.1921 150.774 42.2401 147.918 41.5387C147.517 41.4384 147.092 41.3382 146.641 41.238C146.24 41.0877 145.839 40.9624 145.438 40.8622C143.785 40.5115 142.282 39.9854 140.929 39.2839C139.626 38.5825 138.499 37.7056 137.547 36.6535C135.693 34.5992 134.741 32.119 134.691 29.213C134.691 25.5053 136.018 22.6243 138.674 20.5701C141.38 18.5158 144.586 17.4636 148.294 17.4136C151.651 17.3635 154.482 18.0649 156.787 19.518C158.941 20.8708 160.569 22.8499 161.672 25.4553ZM204.98 41.3887L178.675 41.3885C178.926 42.3405 179.302 43.2424 179.803 44.0942C180.304 44.9459 180.955 45.7225 181.757 46.424C183.31 47.7768 185.214 48.4532 187.469 48.4533C189.423 48.4533 191.051 48.2278 192.354 47.7769C193.656 47.326 194.959 46.6746 196.262 45.8228L201.598 52.136C199.443 53.7894 197.239 54.9919 194.984 55.7434C192.73 56.4449 190.224 56.7956 187.469 56.7956C181.907 56.7956 177.197 54.8665 173.339 51.0085C169.431 47.1504 167.477 42.5158 167.477 37.1046C167.477 31.6432 169.331 26.9836 173.038 23.1256C176.746 19.3177 181.306 17.4138 186.717 17.4138C191.978 17.4138 196.337 19.3178 199.794 23.1257C203.251 26.9337 204.98 31.6936 204.98 37.4054L204.98 41.3887ZM186.942 26.7331C184.838 26.7331 183.009 27.3594 181.456 28.612C179.953 29.9147 178.976 31.6683 178.525 33.8729L194.909 33.873C194.408 31.5682 193.456 29.7895 192.053 28.5369C190.75 27.3344 189.047 26.7332 186.942 26.7331Z" fill="white"/>
</svg>
