<svg width="305" height="69" viewBox="0 0 305 69" fill="none" xmlns="http://www.w3.org/2000/svg">
<path d="M250.697 41.7554H265.532L257.942 21.0554L250.697 41.7554ZM246.73 53.3129L242.762 64.5254H230.515L251.819 4.15039H263.807L286.06 64.5254H273.812L269.759 53.3129H246.73Z" fill="#9939F1"/>
<path d="M292.388 4.1364H296.464V0H300.54V4.1364H304.616V64.7737H300.54V69H296.464V64.7737H292.388C292.388 44.5621 292.502 24.3477 292.388 4.1364Z" fill="#9939F1"/>
<path d="M23.7688 2.25211C28.1963 2.25211 32.1063 3.43086 35.4988 5.78836C38.8913 8.08836 41.1338 11.1071 42.2263 14.8446L31.1 18.0359C30.755 16.7134 29.9213 15.6496 28.5988 14.8446C27.2763 14.0971 25.6663 13.7234 23.7688 13.7234C21.4688 13.7234 19.5713 14.2984 18.0763 15.4484C16.6388 16.5409 15.92 18.0071 15.92 19.8471C15.92 21.2846 16.4663 22.4921 17.5588 23.4696C18.9963 24.6771 21.325 25.5684 24.545 26.1434C30.41 27.1209 35.2113 29.2484 38.9488 32.5259C42.6863 35.7459 44.555 40.0296 44.555 45.3771C44.555 48.0796 44.0375 50.5809 43.0025 52.8809C41.9675 55.1809 40.4725 57.2509 38.5175 59.0909C34.4925 62.8284 29.5763 64.6971 23.7688 64.6971C19.0538 64.6971 14.8563 63.4034 11.1763 60.8159C7.43878 58.2859 4.96628 54.9796 3.75878 50.8971L14.885 47.7921C15.4025 49.4021 16.4663 50.6959 18.0763 51.6734C18.8813 52.1909 19.7438 52.5934 20.6638 52.8809C21.6413 53.1109 22.6763 53.2259 23.7688 53.2259C26.3563 53.2259 28.57 52.4784 30.41 50.9834C31.2725 50.2359 31.905 49.4021 32.3075 48.4821C32.7675 47.5046 32.9975 46.4696 32.9975 45.3771C32.9975 43.3646 32.1925 41.6684 30.5825 40.2884C29.6625 39.5984 28.57 38.9946 27.305 38.4771C26.04 37.9596 24.5738 37.5571 22.9063 37.2696C17.5013 36.2921 13.0738 34.3659 9.62378 31.4909C6.11628 28.6734 4.36253 24.7921 4.36253 19.8471C4.36253 17.3746 4.82253 15.1034 5.74253 13.0334C6.72003 10.9059 8.12878 9.00836 9.96878 7.34085C13.7063 3.94836 18.3063 2.25211 23.7688 2.25211ZM93.8631 47.0159H63.6756C63.9631 48.1084 64.3943 49.1434 64.9693 50.1209C65.5443 51.0984 66.2918 51.9896 67.2118 52.7946C68.9943 54.3471 71.1793 55.1234 73.7668 55.1234C76.0093 55.1234 77.8781 54.8646 79.3731 54.3471C80.8681 53.8296 82.3631 53.0821 83.8581 52.1046L89.9818 59.3496C87.5093 61.2471 84.9793 62.6271 82.3918 63.4896C79.8043 64.2946 76.9293 64.6971 73.7668 64.6971C67.3843 64.6971 61.9793 62.4834 57.5518 58.0559C53.0668 53.6284 50.8243 48.3096 50.8243 42.0996C50.8243 35.8321 52.9518 30.4846 57.2068 26.0571C61.4618 21.6871 66.6943 19.5021 72.9043 19.5021C78.9418 19.5021 83.9443 21.6871 87.9118 26.0571C91.8793 30.4271 93.8631 35.8896 93.8631 42.4446V47.0159ZM73.1631 30.1971C70.7481 30.1971 68.6493 30.9159 66.8668 32.3534C65.1418 33.8484 64.0206 35.8609 63.5031 38.3909H82.3056C81.7306 35.7459 80.6381 33.7046 79.0281 32.2671C77.5331 30.8871 75.5781 30.1971 73.1631 30.1971ZM141.611 63.6621H130.139V40.8059C130.139 37.8159 129.306 35.4584 127.638 33.7334C126.028 31.8934 123.987 30.9734 121.514 30.9734C118.984 30.9734 116.886 31.8934 115.218 33.7334C114.413 34.5959 113.781 35.6309 113.321 36.8384C112.918 37.9884 112.717 39.3109 112.717 40.8059V63.6621H101.246V20.5371H112.027V24.5909C112.257 24.3609 112.487 24.1309 112.717 23.9009C112.947 23.6709 113.177 23.4409 113.407 23.2109C115.994 20.7384 119.387 19.5021 123.584 19.5021C129.047 19.5021 133.446 21.5146 136.781 25.5396C138.391 27.5521 139.598 29.8809 140.403 32.5259C141.208 35.1134 141.611 38.0171 141.611 41.2371V63.6621ZM180.697 28.7309L169.915 32.4396C169.57 31.5771 168.995 30.9159 168.19 30.4559C167.443 29.9959 166.552 29.7659 165.517 29.7659C164.827 29.7659 164.223 29.8521 163.705 30.0246C163.188 30.1396 162.757 30.3696 162.412 30.7146C161.607 31.3471 161.233 32.1521 161.29 33.1296C161.348 34.4521 162.67 35.4009 165.258 35.9759C165.89 36.0909 166.465 36.2059 166.983 36.3209C167.5 36.4359 167.932 36.5509 168.277 36.6659C171.899 37.4709 174.774 38.7934 176.902 40.6334C180.064 43.3359 181.645 46.7859 181.645 50.9834C181.588 55.4109 179.805 58.9184 176.298 61.5059C174.975 62.5409 173.394 63.3171 171.554 63.8346C169.714 64.4096 167.644 64.6971 165.344 64.6971C161.549 64.6396 158.157 63.8059 155.167 62.1959C152.234 60.5859 150.164 58.2284 148.957 55.1234L159.824 51.2421C160.744 53.2546 162.412 54.2609 164.827 54.2609C166.494 54.2609 167.759 53.9159 168.622 53.2259C169.542 52.4784 169.973 51.5584 169.915 50.4659C169.858 49.0859 168.19 47.9934 164.913 47.1884C164.453 47.0734 163.964 46.9584 163.447 46.8434C162.987 46.6709 162.527 46.5271 162.067 46.4121C160.169 46.0096 158.444 45.4059 156.892 44.6009C155.397 43.7959 154.103 42.7896 153.01 41.5821C150.883 39.2246 149.79 36.3784 149.733 33.0434C149.733 28.7884 151.257 25.4821 154.304 23.1246C157.409 20.7671 161.089 19.5596 165.344 19.5021C169.197 19.4446 172.445 20.2496 175.09 21.9171C177.563 23.4696 179.432 25.7409 180.697 28.7309ZM230.398 47.0159H200.21C200.498 48.1084 200.929 49.1434 201.504 50.1209C202.079 51.0984 202.826 51.9896 203.746 52.7946C205.529 54.3471 207.714 55.1234 210.301 55.1234C212.544 55.1234 214.413 54.8646 215.908 54.3471C217.403 53.8296 218.898 53.0821 220.393 52.1046L226.516 59.3496C224.044 61.2471 221.514 62.6271 218.926 63.4896C216.339 64.2946 213.464 64.6971 210.301 64.6971C203.919 64.6971 198.514 62.4834 194.086 58.0559C189.601 53.6284 187.359 48.3096 187.359 42.0996C187.359 35.8321 189.486 30.4846 193.741 26.0571C197.996 21.6871 203.229 19.5021 209.439 19.5021C215.476 19.5021 220.479 21.6871 224.446 26.0571C228.414 30.4271 230.398 35.8896 230.398 42.4446V47.0159ZM209.698 30.1971C207.283 30.1971 205.184 30.9159 203.401 32.3534C201.676 33.8484 200.555 35.8609 200.038 38.3909H218.84C218.265 35.7459 217.173 33.7046 215.563 32.2671C214.068 30.8871 212.113 30.1971 209.698 30.1971Z" fill="#020E33"/>
</svg>
